<?xml version="1.0" ?><svg viewBox="0 0 512 491.87" xmlns="http://www.w3.org/2000/svg"><defs><style>.cls-1{fill:#ff9800;stroke:#000;stroke-linecap:round;stroke-linejoin:round;stroke-width:20px;}</style></defs><g data-name="Layer 2" id="Layer_2"><g data-name="fire fox" id="fire_fox"><path class="cls-1" d="M502,245.93c0,136.19-110.18,235.94-246,235.94S10,371.39,10,235.2a246.45,246.45,0,0,1,30-118A4.76,4.76,0,0,1,41,115.51C30.33,99.45,25.62,58.68,52.77,31.43c0,11.38,6.86,30.89,14.55,45.47,6.21,11.6,12.82,19.95,17.53,18.88,10.7-2.56,48.12-2.56,53.47,0,8.8-11.35,30.2-42.89,64.2-42.89-19,19.08-73.58,85.8,21.4,85.8h21.41l-64.2,42.89s26.31,6,38,25.63c-41.93-5.67-80.8,4.62-80.8,28s24.81,53.62,74.88,53.62,37.42-21.46,64.17-21.46,32.07,21.46,32.07,21.46c-36.8,0-63.53,42.89-107,42.89,21.4,15.88,35.52,21.46,64.18,21.46,70.82,0,128.35-57.69,128.35-128.7a128.28,128.28,0,0,0-25.24-76.56,129.6,129.6,0,0,1,51.35,92,192.78,192.78,0,0,0,6-47.61c0-64.56-27.37-149.94-74.88-182.31C420.72,30.56,502,97.13,502,224.47v21.46Z"/></g></g></svg>