<?xml version="1.0" ?><svg viewBox="0 0 32 32" xmlns="http://www.w3.org/2000/svg"><title/><g data-name="Layer 22" id="Layer_22"><path d="M26.59,14,16.34,4.74a.5.5,0,0,0-.67,0L5.41,14a.5.5,0,0,0,.67.74l1.56-1.41V25.05A1.91,1.91,0,0,0,9.55,27H13.4a.5.5,0,0,0,.5-.5V22.94a2.09,2.09,0,0,1,1.67-2.07,2.21,2.21,0,0,1,1.93.55,1.9,1.9,0,0,1,.61,1.38v3.67a.5.5,0,0,0,.5.5h3.85a1.91,1.91,0,0,0,1.91-1.91V13.37l1.56,1.41a.5.5,0,0,0,.67-.74Zm-3.23,11a.91.91,0,0,1-.91.91H19.1V22.79a2.89,2.89,0,0,0-.92-2.11,3.21,3.21,0,0,0-2.8-.8,3.09,3.09,0,0,0-2.48,3.05v3H9.55a.91.91,0,0,1-.91-.91V12.46L16,5.79l7.36,6.67Z"/></g></svg>